<svg fill="none" height="107" viewBox="0 0 280 107" width="280" xmlns="http://www.w3.org/2000/svg"><g fill="#fff"><path d="m0 .00000328h11.762v2.06582672h-9.43104v5.71459h8.89514v2.09266h-8.89514v6.27802h9.88654l-.3751 2.0658h-11.8424z" transform="translate(5.00946 80.9922)"/><path d="m.0267931.402435h2.1969969v2.012185c.64303-.85854 1.36643-1.475602 2.14341-1.851209.77699-.375607 1.60757-.56341264 2.46493-.56341264 1.50039 0 2.59889.40243764 3.32227 1.23414164.7234.80487 1.0717 2.01218 1.0717 3.59509v8.77307h-2.22376v-8.3438c0-1.23414-.21434-2.09267-.66982-2.57559-.45547-.50976-1.12529-.75121-2.03624-.75121-.48227 0-.99133.08048-1.4736.26829-.48227.16097-.91095.42926-1.31284.80487-.42868.37561-.75019.77804-.96454 1.18048-.21434.40243-.32151.96584-.32151 1.60974v7.80722h-2.2237902v-13.199865z" transform="translate(19.6919 85.6055)"/><path d="m2.03624 5.33898h-2.03624041v-1.77072h2.03624041v-3.56826h2.22379v3.59509h3.48305v1.77072h-3.48305v7.72679c0 .6439.13397 1.1536.42869 1.5561.29472.4024.7234.5902 1.31284.5902.37509 0 .6966-.0268.99132-.0805.26793-.0537.53586-.1073.77699-.2146l.3751 1.717c-.34831.1073-.69661.2147-1.0985.2952-.40189.0804-.85736.1073-1.42001.1073-.75019 0-1.33963-.1074-1.79511-.322-.45547-.2146-.83057-.5366-1.0985-.939-.26792-.4024-.45547-.8854-.53585-1.4488-.10717-.5634-.13396-1.1804-.13396-1.8243v-7.19022z" transform="translate(32.9007 82.4141)"/><path d="m11.8156 9.89992c-.2144 1.26098-.777 2.28048-1.688 3.00488-.91092.7243-2.22376 1.1-3.9117 1.1-2.00945 0-3.53663-.6171-4.60834-1.8244-1.071705-1.2073-1.60755836-2.89756-1.60755836-5.07071 0-1.12682.16075536-2.14632.45547436-3.03168.29472-.88536.723404-1.60974 1.286054-2.2268.56264-.59024 1.20566-1.046337 1.98265-1.368286.77699-.321948 1.60756-.48292728 2.49172-.48292728 1.01812 0 1.90228.16097928 2.62568.48292728.72341.321949 1.33962.778046 1.79512 1.341456s.8038 1.23413 1.0449 2.01217.3483 1.63658.3483 2.57559v1.12682h-9.77932c0 .67072.08038 1.28779.26793 1.8512s.42868 1.07314.77699 1.47564c.32151.4024.75019.7512 1.23246.9926.48227.2415 1.07171.3488 1.71473.3488 1.0985 0 1.90228-.2146 2.41134-.6171.50906-.4024.85737-.9926 1.04492-1.69018zm-2.00948-3.99754c0-.61706-.08038-1.2073-.21434-1.71705-.13397-.50975-.34831-.93902-.64303-1.31462-.29472-.37561-.66981-.6439-1.12529-.85854-.45547-.21463-1.01812-.29511-1.66114-.29511-1.17888 0-2.08984.34878-2.73286 1.07316-.64302.72439-1.04491 1.74388-1.15208 3.11216z" transform="translate(42.2781 85.5801)"/><path d="m-.00000082.24146h2.19700082v2.03901c.48227-.72439 1.07171-1.287792 1.74152-1.690228.66982-.402435 1.36643-.590242 2.11663-.590242.45547 0 .85736.0268274 1.17888.107315l-.26793 2.065835c-.16076-.02683-.3483-.05366-.50906-.08049s-.34831-.02682-.56265-.02682c-.40189 0-.83057.08048-1.25925.21463-.42869.13414-.83058.37561-1.20568.72439-.37509.32194-.66981.69755-.88416 1.12681-.21434.42926-.32151.91219-.32151 1.4756v7.83413h-2.22379082z" transform="translate(57.1747 85.7676)"/><path d="m.00000082.429263h2.19699918v1.878027c.53586-.75121 1.17888-1.314616 1.90228-1.717051.72341-.402436 1.55398-.59024228 2.51852-.59024228.93774 0 1.74153.16098028 2.46493.50975828.69661.348777 1.28607.804865 1.76827 1.421935.4555.61707.8038 1.34145 1.045 2.17315.2411.8317.3483 1.77072.3483 2.79022 0 1.09999-.134 2.06583-.4019 2.95119-.268.88535-.6698 1.60975-1.1789 2.22685-.5091.617-1.1253 1.0731-1.8487 1.4219-.7234.322-1.52718.5098-2.43814.5098-.75019 0-1.4736-.161-2.197-.4561-.7234-.2952-1.36643-.8317-1.95586-1.583v6.5732h-2.22379918zm2.19699918 6.948717c0 .85853.10717 1.58291.29472 2.17315.18755.59027.45548 1.09997.80378 1.50247.34831.4024.7502.6707 1.23247.8585.48226.1878.99133.2683 1.55397.2683.53586 0 1.04492-.1073 1.5004-.2683.45547-.1878.85736-.4829 1.20567-.9122.3483-.4024.61623-.9658.80378-1.60974.18755-.67073.29472-1.4756.29472-2.41462 0-.96584-.10717-1.77071-.32152-2.44143-.21434-.6439-.48227-1.18048-.83057-1.55609-.34831-.40244-.7234-.67073-1.15208-.8317-.42869-.16098-.88416-.26829-1.33964-.26829-.58944 0-1.0985.10732-1.60756.29512-.48227.1878-.91095.48293-1.28605.85853-.3751.37561-.64303.85853-.85737 1.44877s-.29472 1.26096-.29472 2.03901z" transform="translate(66.579 85.5801)"/><path d="m.00000327.24146h2.19699673v2.03901c.48227-.72439 1.07171-1.287792 1.74152-1.690228.66982-.402435 1.36643-.590242 2.11662-.590242.45548 0 .85738.0268274 1.17889.107315l-.26793 2.065835c-.16075-.02683-.34831-.05366-.50907-.08049-.16075-.02683-.34829-.02682-.56264-.02682-.40189 0-.83057.08048-1.25925.21463-.42869.13414-.83058.37561-1.20568.72439-.37509.32194-.66981.69755-.88415 1.12681s-.32152.91219-.32152 1.4756v7.83413h-2.22378673z" transform="translate(81.6901 85.7676)"/><path d="m.00000164.00000328h2.35772836v2.57558672h-2.35772836zm.08037406 5.01702672h2.2237743v13.17307h-2.2237743z" transform="translate(91.0407 80.9922)"/><path d="m2.197 9.71212c.16076.91218.53585 1.55608 1.15209 1.93168.61623.3756 1.47359.5366 2.51851.5366 1.12529 0 1.90228-.1878 2.38455-.5634.45547-.3756.69661-.8854.69661-1.5024 0-.26834-.02679-.5098-.08038-.72444-.05358-.21463-.18755-.42926-.34831-.61706-.16075-.1878-.40188-.32195-.72339-.48293-.29472-.13414-.69661-.24145-1.20568-.32194l-1.68794-.26829c-.7502-.10732-1.39322-.2683-1.95586-.4561-.56265-.1878-1.04492-.42926-1.42001-.72438-.40189-.29512-.696618-.67073-.884167-1.09999-.187549-.42927-.294721-.96585-.294721-1.55609 0-.61707.133963-1.15364.40189-1.63657.267928-.48292.616238-.88535 1.098498-1.2073.45548-.321952 1.01813-.590247 1.66115-.751221.64303-.1878035 1.33963-.26829064 2.06304-.26829064.93774 0 1.74153.10731664 2.38455.26829064.64303.187803 1.15209.429263 1.55398.778041.40189.32195.72339.69756.93769 1.15365.2144.42927.4019.91219.5091 1.39511l-2.00944.32195c-.10717-.34878-.26793-.67073-.40189-.93902-.16076-.26829-.3483-.50975-.61623-.67072-.26793-.18781-.56265-.32195-.93775-.40244-.37509-.10731-.83057-.13414-1.36642-.13414-.61624 0-1.1253.05366-1.52719.16097-.40189.10732-.7234.26829-.99133.45609-.24113.18781-.42868.40244-.53585.61707-.10717.24147-.16076.48292-.16076.72438 0 .26829.02679.50976.10717.72439s.18755.40244.3751.56341c.18755.16098.42869.29512.77699.42927.32151.10732.75019.21463 1.25925.29511l1.90229.29512c1.55397.26829 2.65247.69756 3.32226 1.31463.6698.61706.9914 1.55608.9914 2.76344 0 .5634-.1072 1.0731-.3216 1.5292-.2143.4561-.5626.8854-.99128 1.2341-.42868.3488-.99133.6171-1.66115.8049s-1.42001.2951-2.30417.2951c-.80378 0-1.52718-.0805-2.22379-.2414-.69661-.161-1.28606-.4025-1.82191-.7244-.53585-.322-.93774-.7781-1.259252-1.3146-.321512-.5366-.5090626-1.2073-.562648-1.98538z" transform="translate(95.9706 85.6055)"/><path d="m11.8156 9.89992c-.2144 1.26098-.777 2.28048-1.688 3.00488-.91092.7243-2.22376 1.1-3.9117 1.1-2.00945 0-3.53664-.6171-4.60834-1.8244-1.07171-1.2073-1.60756327-2.89756-1.60756327-5.07071 0-1.12682.16075927-2.14632.45547827-3.03168.29472-.88536.723395-1.60974 1.286045-2.2268.56265-.59024 1.20568-1.046337 1.98266-1.368286.77699-.321948 1.60756-.48292728 2.49172-.48292728 1.01812 0 1.90228.16097928 2.62568.48292728.7234.321949 1.33962.778046 1.79512 1.341456s.8038 1.23413 1.0449 2.01217.3483 1.63658.3483 2.57559v1.12682h-9.77931c0 .67072.08038 1.28779.26792 1.8512.18755.56341.42869 1.07314.77699 1.47564.32151.4024.7502.7512 1.23247.9926.48226.2415 1.0717.3488 1.71472.3488 1.0985 0 1.90228-.2146 2.41134-.6171.50907-.4024.85737-.9926 1.04492-1.69018zm-2.00948-3.99754c0-.61706-.08038-1.2073-.21434-1.71705s-.3483-.93902-.64302-1.31462c-.29472-.37561-.66982-.6439-1.1253-.85854-.45548-.21463-1.01812-.29511-1.66115-.29511-1.17888 0-2.08982.34878-2.73285 1.07316-.64302.72439-1.04492 1.74388-1.15209 3.11216z" transform="translate(109.447 85.5801)"/><path d="m.00000164.00000328h2.65246836l3.80456 14.97059672 3.93857-14.8901128h2.5185l3.9117 14.8901128 3.7778-14.97059672h2.4917l-5.037 18.19009672h-2.465l-4.0457-15.21208-3.96528 15.21208h-2.38454z" transform="translate(128.417 80.9922)"/><path d="m6.34985 14.0048c-.99133 0-1.90228-.161-2.67926-.483-.77699-.3219-1.44681-.778-1.98266-1.3682-.53585-.5903-.964523-1.3147-1.259242-2.20003-.294718-.85853-.42869127-1.82437-.42869127-2.89753s.16075927-2.03901.45547727-2.89754c.294719-.85853.750186-1.60974 1.286046-2.22681.56264-.61707 1.23246-1.073158 2.00944-1.421935.77699-.321949 1.66114-.50975828 2.62567-.50975828.99133 0 1.87549.16097928 2.65248.48292728.77698.321949 1.44679.778036 2.00949 1.395106.5626.61707.9645 1.34145 1.2592 2.17315.2947.85853.4287 1.79755.4287 2.87071 0 1.09999-.1608 2.06584-.4555 2.92436-.2947.85855-.7234 1.60975-1.286 2.22685-.5627.617-1.23249 1.0731-2.00948 1.4219-.75019.3488-1.66114.5098-2.62567.5098zm.02678-1.8244c.7234 0 1.31286-.1342 1.82191-.3756.50906-.2683.93773-.6171 1.25924-1.0732.32152-.4561.56262-1.01949.72342-1.63656.1607-.64389.2411-1.34145.2411-2.09266 0-.75122-.0804-1.42194-.2411-2.06583-.1608-.61707-.4019-1.18048-.72342-1.60975-.32151-.45609-.75018-.80487-1.25924-1.04634-.50905-.26829-1.1253-.3756-1.82191-.3756-.7234 0-1.31283.13414-1.82189.3756-.50906.26829-.91095.61708-1.25926 1.04634-.32151.4561-.56263.99268-.72338 1.60975-.16076.61706-.24114 1.31461-.24114 2.09266 0 .77804.08038 1.44876.24114 2.09266.16075.61706.40187 1.18043.72338 1.63653.32152.4561.7502.8049 1.25926 1.0732.48227.2146 1.09849.3488 1.82189.3488z" transform="translate(152.182 85.5801)"/><path d="m.00000327.24146h2.19699673v2.03901c.48227-.72439 1.0717-1.287792 1.74152-1.690228.66982-.402435 1.36641-.590242 2.11661-.590242.45547 0 .85737.0268274 1.17888.107315l-.26793 2.065835c-.16075-.02683-.34831-.05366-.50906-.08049-.16076-.02683-.3483-.02682-.56264-.02682-.40189 0-.83058.08048-1.25926.21463-.42868.13414-.83057.37561-1.20567.72439-.37509.32194-.66981.69755-.88415 1.12681s-.32151.91219-.32151 1.4756v7.83413h-2.22378673z" transform="translate(167.829 85.7676)"/><path d="m-.00000327.00000328h2.22380327v18.19009672h-2.22380327z" transform="translate(177.233 80.9922)"/><path d="m9.99364 16.3389c-.53585.7244-1.17887 1.2878-1.87548 1.6902-.7234.4025-1.55398.5903-2.51851.5903s-1.7951-.1878-2.5185-.5366c-.6966-.3488-1.28604-.8317-1.74152-1.4756-.45547-.6171-.803771-1.3415-1.018112-2.2-.214341-.8585-.32151473-1.7707-.32151473-2.7366 0-1.0731.13396273-2.0658.40188873-2.95116.267927-.88535.669808-1.60974 1.152078-2.22681.50906-.61707 1.0985-1.07316 1.8219-1.39511s1.52718-.48293 2.46492-.48293c.69661 0 1.39322.13415 2.11662.42927.7234.26829 1.36642.80487 1.98265 1.58291v-6.62676836h2.22374v18.19009836h-2.17016zm.02676-5.0975c0-1.0464-.10714-1.87806-.34827-2.4683s-.61623-1.07316-1.12529-1.50242c-.3751-.29512-.75018-.50976-1.12528-.64391-.3751-.10731-.80378-.1878-1.25926-.1878-.53585 0-1.04492.10732-1.50039.26829-.45548.18781-.88415.48293-1.23246.91219-.3483.42927-.61623.93902-.80377 1.60974-.18755.6439-.29472 1.44881-.29472 2.38781 0 .9658.10716 1.7975.3215 2.4414.21434.6708.48228 1.1805.83058 1.5829.34831.4025.75019.6708 1.17887.8317.42868.161.88415.2683 1.33963.2683.48227 0 .93775-.0536 1.31284-.1878.40189-.1073.777-.3219 1.17888-.617.50906-.4025.88416-.9122 1.15208-1.5293.26793-.6171.40186-1.3951.40186-2.3073v-.8585z" transform="translate(182.431 80.9648)"/><path d="m.133964 16.2584c.643025-.5902 1.339636-1.1805 2.089826-1.8244.7502-.6439 1.5004-1.3146 2.27739-1.9853.80378-.7244 1.52718-1.3683 2.14341-1.9585.61624-.59027 1.1253-1.15369 1.52719-1.69027s.72341-1.09999.91096-1.6634.29472-1.15365.29472-1.79755c0-1.07316-.29473-1.87803-.85737-2.46827-.58944-.56341-1.39323-.85853-2.41135-.85853-.61623 0-1.15209.08049-1.60756.21463-.42869.13415-.80379.32195-1.1253.59024-.29472.26829-.56265.59024-.7502.99267-.18754.40244-.37508.85854-.50905 1.36829l-2.11663-.32195c.160756-.61706.375105-1.20731.643032-1.79755.267927-.56341.643008-1.09999 1.125278-1.52926.48227-.45609 1.07172-.804862 1.76833-1.099982.72341-.26829 1.58077-.42926636 2.62569-.42926636.91095 0 1.68795.13414336 2.38456.37560536.69661.268291 1.28605.617067 1.74151 1.046333.4555.45609.8306.99267 1.0717 1.60974.2412.61707.3751 1.31463.3751 2.09267 0 .77805-.1072 1.4756-.3215 2.14633s-.5358 1.31462-.9913 1.95852c-.4287.6439-.99136 1.3146-1.68798 1.9853-.66981.6708-1.4736 1.422-2.41134 2.2269-.48227.4292-.99132.8585-1.52717 1.2878-.50907.4292-1.01814.8585-1.50041 1.3146h8.6005l-.3215 2.039h-11.440536z" transform="translate(203.275 81.0996)"/><path d="m6.40344 18.5389c-2.00944 0-3.59022-.7512-4.71551-2.2268-1.125291-1.4756-1.68793327-3.8366-1.68793327-7.02925 0-1.58291.16075927-2.97802.45547827-4.1585s.750205-2.14633 1.312845-2.89754c.56265-.77804 1.25925-1.34145 2.03623-1.690227.77699-.348778 1.68793-.53658136 2.70605-.53658136s1.90228.18780336 2.67927.53658136c.77698.375606 1.44683.939017 2.00943 1.690227.5627.77804.9646 1.74389 1.2593 2.89754.2947 1.18048.4287 2.54876.4287 4.1585 0 1.60975-.134 2.97805-.4287 4.13165-.2947 1.1537-.7234 2.1195-1.2861 2.8707-.5626.7512-1.23243 1.3147-2.0362 1.6903-.80378.3756-1.71474.5634-2.73286.5634zm.05359-1.9854c.77699 0 1.39321-.161 1.92906-.4829.50906-.3219.93774-.8049 1.25926-1.4219.32151-.6171.53585-1.3683.69665-2.2805.1339-.9122.2143-1.9317.2143-3.05852s-.0804-2.14633-.2143-3.05851c-.134-.91219-.37514-1.66341-.69665-2.3073-.32152-.61707-.72341-1.09999-1.25926-1.44877-.50906-.32195-1.15207-.50975-1.92906-.50975-.77698 0-1.42001.16097-1.92907.50975-.53585.32195-.93775.80487-1.25926 1.44877-.32151.61706-.53584 1.39511-.6966 2.3073-.13396.91218-.21435 1.93169-.21435 3.05851s.08039 2.14632.21435 3.05852.37509 1.6634.6966 2.2805c.32151.617.72341 1.1 1.25926 1.4219s1.17888.4829 1.92907.4829z" transform="translate(217.556 81.0996)"/><path d="m5.01024 2.4951-4.045708 2.44145-.964532-1.66341 5.25137-3.27314328h2.06304v17.59980328h-2.30417z" transform="translate(233.149 81.5547)"/><path d="m3.24191 9.09505c-.75019-.29512-1.39323-.77804-1.90229-1.4756-.535848-.69755-.776972-1.58291-.776972-2.70973 0-.69756.107167-1.34145.348301-1.93169.241131-.59024.589431-1.12683 1.098491-1.55609.48227-.429267 1.0985-.778043 1.8487-1.046333.75019-.268291 1.63435-.37560536 2.65247-.37560536 1.04491 0 1.92907.13414336 2.67926.37560536.7502.241461 1.36643.590237 1.84873 1.046333.4822.42926.8305.96585 1.0717 1.55609.2411.61707.3483 1.26096.3483 1.95852 0 1.12682-.268 2.01217-.777 2.6829-.5091.67073-1.1521 1.15365-1.9023 1.42194.3483.10731.7234.29512 1.0985.50976.3751.24146.7234.50975 1.0181.85855.3215.3487.5627.778.777 1.2609.2144.483.2947 1.0464.2947 1.6634 0 .7781-.1339 1.5025-.4019 2.1464-.2679.6439-.6698 1.2073-1.2056 1.6634-.5359.4561-1.2057.8048-2.03626 1.0463-.80378.2415-1.74153.3756-2.84003.3756s-2.03623-.1341-2.84001-.3756-1.5004-.5902-2.03625-1.0463-.937741-1.0195-1.205667-1.6634-.40188954-1.3683-.40188954-2.1464c0-.617.10717354-1.1536.32151454-1.6365.214341-.483.482267-.8854.803782-1.2342.32151-.3487.66981-.64387 1.01811-.8585.40189-.24146.75021-.40243 1.09851-.50975zm-.93774 4.23895c0 .9927.32151 1.8244 1.01811 2.4415.66982.6171 1.74152.939 3.21512.939 1.4468 0 2.51851-.3219 3.18833-.939.66977-.6171.99127-1.4488.99127-2.4683 0-.4829-.0803-.9122-.2143-1.3146-.134-.4025-.3751-.7512-.6966-1.0195-.32151-.2951-.75019-.5098-1.28604-.6707-.53585-.161-1.17888-.2415-1.98266-.2415s-1.4736.0805-2.00945.2415c-.53585.1609-.96453.3756-1.28604.6707s-.56265.617-.7234 1.0195c-.16076.4292-.21434.8853-.21434 1.3414zm.40189-8.31697c0 1.04633.29471 1.85121.91094 2.36096.58943.53658 1.55398.77804 2.89361.77804 1.31284 0 2.27737-.26829 2.8936-.77804.61619-.53658.91099-1.31462.91099-2.38778 0-.42927-.0804-.83171-.2144-1.23414-.13395-.40244-.34829-.72439-.6698-1.01951-.29472-.29512-.6966-.50975-1.17887-.69755-.48226-.16097-1.0717-.26829-1.74152-.26829-.66981 0-1.25925.08049-1.74152.26829-.48226.16098-.88416.40243-1.17888.69755s-.53585.6439-.66981 1.04634c-.16076.40244-.21434.80486-.21434 1.23413z" transform="translate(245.233 81.0996)"/><path d="m36.4648 17.7496c0 8.5853-4.9298 17.8949-18.1922 17.8949-9.56498 0-18.2726-5.3121-18.2726-17.8949 0-10.4097 6.5642-18.404758 19.5586-17.707203 13.8519.804871 16.9062 11.536503 16.9062 17.707203zm-24.7028-6.5195c-1.2325 1.9049-1.688 4.1853-1.688 6.4658 0 5.2585 2.5989 10.0341 8.1986 10.0341 5.3853 0 8.0646-4.4 8.0646-9.6048 0-3.6756-.911-6.5463-2.7864-8.31703-2.1167-1.87803-4.4476-1.95852-5.8676-1.82437-2.8669.1878-4.5548 1.15364-5.9212 3.2463z" transform="translate(3 9.23633)"/><path d="m10.074 3.83655c.9646-1.04633 1.6344-1.82437 3.3759-2.65607 1.554-.643899 3.7778-1.18048 6.1623-1.18048 2.0095 0 4.2869.321948 6.0552 1.28779 3.5634 1.87804 4.4744 4.93655 4.4744 10.22191v23.2339h-9.9401v-19.1291c0-3.0585-.0536-4.1585-.4555-5.0707-.777-1.82436-2.5453-2.6024-4.4744-2.6024-5.2513 0-5.2513 4.2122-5.2513 8.4511v18.3511h-10.02049836v-33.9119h10.07399836z" transform="translate(118.101 9.30469)"/><path d="m34.0535 25.9726c-.911 1.9317-3.8582 9.6317-16.9062 9.6317-10.07403 0-17.14730327-6.1707-17.14730327-17.3048 0-8.2097 4.01890327-18.29737778 17.41520327-18.29737778 2.0095 0 7.8771-.24146122 12.2175 4.42678778 4.4208 4.74875 4.6887 11.40239 4.8227 15.23889h-24.2474c-.0536 4.239 2.331 8.4512 7.7431 8.4512 5.4657 0 7.3412-3.5683 8.5737-5.9829zm-9.9669-12.556c-.1875-1.4219-.4555-3.3268-1.8755-4.82918-1.2324-1.23414-3.1079-1.87804-4.8762-1.87804-2.4114 0-4.0993 1.18048-5.0638 2.19999-1.3665 1.50243-1.688 3.05853-2.0095 4.48043h13.825z" transform="translate(79.3055 9.30273)"/><path d="m16.022 14.1926h6.6178v-7.05607h-6.5642v-7.13653h-9.94006v7.13653h-1.58078l-4.55476 7.02917h6.13554v16.1511c0 3.2463.05358 5.661 1.42001 7.6731 2.14341 3.1122 5.92115 3.3268 9.35065 3.3268 1.8219 0 3.108-.1878 5.2514-.5097v-7.8073l-3.5635.1342c-2.6524 0-2.6524-1.7439-2.5988-3.8366v-15.1047z" transform="translate(236.498 3)"/><path d="m.00000327 0h9.94008673v7.13653h10.34201l-4.5548 7.02917h-5.8408v15.078c-.05358 2.0926-.05358 3.8365 2.5989 3.8365l3.5634-.1341v7.834c-2.1434.322-3.4562.5098-5.2513.5098-3.4563 0-7.20728-.1878-9.3507-3.3268-1.3664283-2.0122-1.4200106-4.4268-1.4200106-7.6731v-30.29z" transform="translate(153.226 3)"/><path d="m3.50984 7.05604h-1.23247v-6.00971h-2.27737327v-1.0463299h5.70682327v1.0463299h-2.22378v6.00971zm9.64536 0h-1.2057l.0536-4.34631.0536-1.44877-.3483 1.18048-1.4468 4.6146h-1.09852l-1.42001-4.6146-.3483-1.15365.08037 1.42194.05359 4.34631h-1.17888v-7.0560399h1.66115l1.7683 5.5536099 1.7147-5.5536099h1.6612z" transform="translate(264.845 10.1367)"/><path d="m33.4908 25.9995-1.9023 2.9512c-1.7951 2.6292-5.1441 6.6536-14.7359 6.6536-10.07406 0-16.85259346-6.1707-16.85259346-17.3048 0-8.2097 4.01890346-18.29737778 17.41519346-18.29737778 2.0095 0 7.8771-.24146122 12.2175 4.42678778 4.4208 4.74875 4.6887 11.40239 4.8227 15.23889h-24.2474c-.0536 4.239 2.0363 8.4512 7.4216 8.4512 5.4657 0 7.0197-3.5683 8.2521-5.9829zm-9.3774-12.5829c-.1875-1.4219-.4555-3.3268-1.8755-4.82918-1.2324-1.23414-3.1079-1.87804-4.8763-1.87804-2.4113 0-4.0992 1.18048-5.0638 2.19999-1.3664 1.50243-1.6879 3.05853-2.0094 4.48043h13.825z" transform="translate(171.365 9.30273)"/><path d="m35.3396 33.9119-12.4319-17.8413 10.3688-16.0705999h-11.3869l-4.8762 7.5926199-5.2782-7.5926199h-11.386889l11.172489 16.0705999-11.52080654 17.8413h11.38690654l6.0551-9.3633 6.5107 9.3633z" transform="translate(203.57 10.1367)"/><path d="m10.1008 3.83655c.9646-1.44876 4.0189-3.83655 8.8952-3.83655 8.3057 0 14.1733 6.30483 14.1733 17.6267 0 6.9755-2.5453 17.9754-14.602 17.9754-4.3404 0-7.6895-2.4146-8.5468-3.8365v14.2194h-10.02050082v-45.153299h10.07400082v3.004849zm6.7518 3.9707c-1.8219 0-3.6974.72439-5.1442 2.54875-1.42 1.7439-2.08983 4.4805-2.08983 7.4585 0 3.9975 1.17893 6.4121 2.41133 7.8072 1.1521 1.3147 2.8668 2.039 4.4744 2.039 4.8763 0 7.0197-5.1511 7.0197-10.1145 0-4.1853-1.2325-8.61213-5.3318-9.57797-.4287-.08049-.8841-.16098-1.3396-.16098z" transform="translate(43.1086 9.30469)"/></g></svg>