<?xml version="1.0" encoding="utf-8"?>
<!-- Generator: Adobe Illustrator 22.0.1, SVG Export Plug-In . SVG Version: 6.00 Build 0)  -->
<svg version="1.1" id="Layer_1" xmlns="http://www.w3.org/2000/svg" xmlns:xlink="http://www.w3.org/1999/xlink" x="0px" y="0px"
	 viewBox="0 0 336.6 78" style="enable-background:new 0 0 336.6 78;" xml:space="preserve">
<style type="text/css">
	.st0{fill:#FFFFFF;}
</style>
<title>EnterpriseWorldLogo</title>
<desc>Created with Sketch.</desc>
<g>
	<g>
		<path class="st0" d="M3.3,53h5.1v24.4H3.3V53z"/>
		<path class="st0" d="M13.1,59.6h4.6V62c0.7-1,1.5-1.9,2.5-2.2c1-0.5,2-0.7,3-0.7c2,0,3.5,0.5,4.5,1.6s1.5,2.7,1.5,5v11.8h-4.8
			V66.2c0-1.2-0.2-2.1-0.7-2.6c-0.5-0.5-1.1-0.7-1.9-0.7c-0.6,0-1.1,0.1-1.6,0.2s-0.9,0.5-1.2,0.7c-0.4,0.4-0.6,0.7-0.7,1.1
			c-0.2,0.5-0.4,0.9-0.4,1.5v10.9h-4.8V59.6H13.1z"/>
		<path class="st0" d="M33.4,59.6H38V62c0.7-1,1.5-1.9,2.5-2.2c1-0.5,2-0.7,3-0.7c2,0,3.5,0.5,4.5,1.6s1.5,2.7,1.5,5v11.8h-4.8V66.2
			c0-1.2-0.2-2.1-0.7-2.6c-0.5-0.5-1.1-0.7-1.9-0.7c-0.6,0-1.1,0.1-1.6,0.2c-0.5,0.1-0.9,0.5-1.2,0.7c-0.4,0.4-0.6,0.7-0.7,1.1
			c-0.2,0.5-0.4,0.9-0.4,1.5v10.9h-4.6V59.6z"/>
		<path class="st0" d="M61.9,78c-2.8,0-5.1-0.9-6.7-2.5c-1.6-1.6-2.4-4-2.4-7.1c0-1.5,0.2-2.7,0.6-4c0.4-1.1,1-2.1,1.9-3
			c0.7-0.9,1.7-1.5,2.8-1.9c1.1-0.4,2.4-0.6,3.7-0.6s2.6,0.2,3.7,0.6c1.1,0.4,2.1,1.1,2.8,1.9c0.7,0.9,1.4,1.9,1.7,3
			c0.4,1.1,0.6,2.5,0.6,4c0,1.5-0.2,2.8-0.6,4c-0.4,1.1-1,2.1-1.9,3c-0.7,0.9-1.7,1.5-2.8,1.9C64.5,77.8,63.3,78,61.9,78z
			 M61.9,74.2c1.4,0,2.4-0.5,3.1-1.5c0.6-1,1-2.4,1-4.2c0-1.9-0.4-3.2-1-4.2c-0.6-1-1.7-1.5-3.1-1.5c-1.4,0-2.4,0.5-3.1,1.5
			c-0.6,1-1,2.4-1,4.2c0,1.9,0.4,3.2,1,4.2C59.6,73.7,60.5,74.2,61.9,74.2z"/>
		<path class="st0" d="M72.1,59.6h5.6l4,12.4l4-12.4h5.3l-7.1,17.8H79L72.1,59.6z"/>
		<path class="st0" d="M103.4,75.2c-0.7,0.7-1.5,1.5-2.4,2c-0.9,0.5-2,0.7-3.3,0.7c-0.7,0-1.6-0.1-2.2-0.2c-0.7-0.2-1.4-0.5-1.9-1
			c-0.5-0.4-1-1-1.2-1.6c-0.4-0.6-0.5-1.5-0.5-2.4c0-1.2,0.2-2.2,0.9-3c0.5-0.7,1.2-1.4,2.1-1.9c0.9-0.4,1.9-0.7,3-0.9
			s2.2-0.2,3.3-0.4l2.2-0.1v-0.9c0-1.1-0.2-1.9-0.9-2.2c-0.6-0.4-1.4-0.6-2.1-0.6c-1.9,0-3,0.7-3.2,2.1l-4.3-0.4
			c0.4-1.9,1.1-3.2,2.5-4.1c1.4-0.9,3.1-1.2,5.3-1.2c1.4,0,2.5,0.1,3.5,0.5c1,0.4,1.7,0.7,2.4,1.4c0.6,0.6,1,1.4,1.2,2.2
			c0.2,0.9,0.4,1.9,0.4,3v11.1h-4.5v-2.2H103.4z M103.3,69.5l-2.1,0.1c-1,0-1.9,0.1-2.5,0.2s-1.1,0.4-1.4,0.6
			c-0.4,0.2-0.5,0.5-0.6,0.9s-0.1,0.6-0.1,1.1c0,0.6,0.2,1.1,0.6,1.4c0.4,0.4,1,0.5,1.7,0.5c1.2,0,2.2-0.2,3-0.9
			c0.4-0.4,0.7-0.7,1.1-1.2c0.2-0.5,0.4-1.1,0.4-1.9v-0.9H103.3z"/>
		<path class="st0" d="M113.2,63.3h-2.8v-3.7h2.8v-4.7h4.8v4.7h4.1v3.7H118v8.2c0,1,0.2,1.6,0.6,1.9c0.4,0.4,0.9,0.5,1.5,0.5
			c0.4,0,0.6,0,1,0s0.6-0.1,1-0.2l0.7,3.5c-0.6,0.2-1.4,0.4-2,0.4c-0.6,0.1-1.2,0.1-1.7,0.1c-2,0-3.5-0.5-4.3-1.4
			c-1-1-1.4-2.5-1.4-4.7v-8.2H113.2z"/>
		<path class="st0" d="M125.2,53h5v4.3h-5V53z M125.2,59.6h4.8v17.8h-4.8V59.6z"/>
		<path class="st0" d="M142.5,78c-2.8,0-5.1-0.9-6.7-2.5c-1.6-1.6-2.4-4-2.4-7.1c0-1.5,0.2-2.7,0.6-4c0.4-1.1,1-2.1,1.9-3
			c0.7-0.9,1.7-1.5,2.8-1.9c1.1-0.4,2.4-0.6,3.7-0.6c1.4,0,2.6,0.2,3.7,0.6c1.1,0.4,2.1,1.1,2.8,1.9c0.7,0.9,1.4,1.9,1.7,3
			c0.4,1.1,0.6,2.5,0.6,4c0,1.5-0.2,2.8-0.6,4c-0.4,1.1-1,2.1-1.9,3c-0.7,0.9-1.7,1.5-2.8,1.9C145.1,77.8,143.9,78,142.5,78z
			 M142.5,74.2c1.4,0,2.4-0.5,3.1-1.5c0.6-1,1-2.4,1-4.2c0-1.9-0.4-3.2-1-4.2c-0.6-1-1.7-1.5-3.1-1.5c-1.4,0-2.4,0.5-3.1,1.5
			c-0.6,1-1,2.4-1,4.2c0,1.9,0.4,3.2,1,4.2C140.2,73.7,141.1,74.2,142.5,74.2z"/>
		<path class="st0" d="M155.1,59.6h4.6V62c0.7-1,1.5-1.9,2.5-2.2c1-0.5,2-0.7,3-0.7c2,0,3.5,0.5,4.5,1.6s1.5,2.7,1.5,5v11.8h-4.8
			V66.2c0-1.2-0.2-2.1-0.7-2.6c-0.5-0.5-1.1-0.7-1.9-0.7c-0.6,0-1.1,0.1-1.6,0.2c-0.5,0.1-0.9,0.5-1.2,0.7c-0.4,0.4-0.6,0.7-0.7,1.1
			c-0.2,0.5-0.4,0.9-0.4,1.5v10.9h-4.8V59.6H155.1z"/>
		<path class="st0" d="M188.8,57.4h-7.3V53h19.8v4.5H194v19.9h-5.1V57.4H188.8z"/>
		<path class="st0" d="M209.4,78c-2.8,0-5.1-0.9-6.7-2.5c-1.6-1.6-2.4-4-2.4-7.1c0-1.5,0.2-2.7,0.6-4c0.4-1.1,1-2.1,1.9-3
			c0.7-0.9,1.7-1.5,2.8-1.9c1.1-0.4,2.4-0.6,3.7-0.6s2.6,0.2,3.7,0.6c1.1,0.4,2.1,1.1,2.8,1.9c0.7,0.9,1.4,1.9,1.7,3
			c0.4,1.1,0.6,2.5,0.6,4c0,1.5-0.2,2.8-0.6,4c-0.4,1.1-1,2.1-1.9,3c-0.7,0.9-1.7,1.5-2.8,1.9C212.1,77.8,210.8,78,209.4,78z
			 M209.4,74.2c1.4,0,2.4-0.5,3.1-1.5c0.6-1,1-2.4,1-4.2c0-1.9-0.4-3.2-1-4.2c-0.6-1-1.7-1.5-3.1-1.5c-1.4,0-2.4,0.5-3.1,1.5
			c-0.6,1-1,2.4-1,4.2c0,1.9,0.4,3.2,1,4.2C207,73.7,208,74.2,209.4,74.2z"/>
		<path class="st0" d="M221.9,59.6h4.8v11.1c0,1.2,0.2,2.1,0.7,2.6c0.5,0.5,1.1,0.6,1.9,0.6c0.6,0,1.1-0.1,1.5-0.2
			c0.4-0.1,0.7-0.5,1.1-0.7c0.4-0.4,0.6-0.7,0.9-1.1c0.2-0.5,0.4-0.9,0.4-1.5V59.6h4.8v17.8h-4.6v-2.5c-0.7,1-1.6,1.9-2.5,2.2
			c-0.9,0.5-1.9,0.7-3,0.7c-2,0-3.5-0.5-4.5-1.6c-1-1.1-1.5-2.7-1.5-5V59.6H221.9z"/>
		<path class="st0" d="M242,59.6h4.6V62c0.6-1,1.4-1.6,2.1-2.1c0.9-0.5,1.7-0.7,2.6-0.7c0.5,0,0.9,0,1.1,0s0.6,0.1,0.7,0.1l-0.6,4.3
			c-0.5-0.1-1.2-0.2-2-0.2c-0.5,0-1,0.1-1.5,0.2c-0.5,0.1-0.9,0.4-1.2,0.7c-0.4,0.4-0.7,0.7-0.9,1.2c-0.2,0.5-0.2,0.9-0.2,1.4v10.4
			h-4.8V59.6H242z"/>
		<path class="st0" d="M264.3,75.5c0.7-0.7,1.7-1.5,2.7-2.5c1-0.9,2.1-1.9,3.1-2.7c1.1-1,2.2-2,3.1-2.7c0.9-0.9,1.6-1.6,2.2-2.5
			c0.6-0.7,1-1.6,1.4-2.4c0.2-0.9,0.5-1.7,0.5-2.6c0-1.7-0.5-3-1.4-3.8s-2.1-1.2-3.8-1.2c-1,0-1.9,0.1-2.5,0.4s-1.2,0.5-1.7,0.9
			c-0.5,0.4-0.9,0.9-1.1,1.5c-0.2,0.6-0.5,1.2-0.7,1.9l-1.9-0.4c0.1-0.7,0.5-1.4,0.9-2.1c0.4-0.7,0.9-1.4,1.5-2
			c0.6-0.6,1.4-1,2.4-1.4c0.9-0.4,2-0.5,3.3-0.5c1.1,0,2.1,0.1,3.1,0.5c0.9,0.4,1.6,0.7,2.2,1.4c0.6,0.6,1.1,1.4,1.4,2.1
			c0.4,0.9,0.5,1.7,0.5,2.6c0,1.1-0.1,2.1-0.5,3c-0.4,1-0.7,1.9-1.5,2.7c-0.6,0.9-1.5,1.9-2.5,2.8c-1,1-2.2,2.1-3.6,3.2
			c-0.7,0.6-1.5,1.2-2.2,1.9c-0.7,0.6-1.5,1.4-2.2,1.9h12.5l-0.4,1.9h-14.7V75.5z"/>
		<path class="st0" d="M291.6,78c-2.6,0-4.7-1-6.2-3s-2.2-5.1-2.2-9.4c0-2.1,0.2-4,0.6-5.6s1-2.8,1.7-3.8s1.6-1.7,2.7-2.2
			c1.1-0.5,2.2-0.7,3.6-0.7s2.5,0.2,3.6,0.7c1,0.5,1.9,1.2,2.6,2.2c0.7,1,1.2,2.4,1.6,3.8c0.4,1.6,0.6,3.5,0.6,5.6
			c0,2.1-0.2,4-0.6,5.6c-0.4,1.6-1,2.8-1.7,3.8c-0.7,1-1.6,1.7-2.7,2.2C294,77.8,292.9,78,291.6,78z M291.6,76.1
			c1.1,0,2.1-0.2,3-0.7c0.7-0.5,1.5-1.1,2-2.1c0.5-0.9,0.9-2,1.1-3.3c0.2-1.4,0.4-2.8,0.4-4.5c0-1.6-0.1-3.1-0.4-4.5
			c-0.2-1.4-0.6-2.5-1.1-3.3c-0.5-0.9-1.1-1.6-2-2.1c-0.7-0.5-1.7-0.7-3-0.7c-1.1,0-2.1,0.2-3,0.7c-0.9,0.5-1.5,1.2-2,2.1
			c-0.5,0.9-0.9,2-1.1,3.3c-0.2,1.4-0.4,2.7-0.4,4.5c0,1.6,0.1,3.1,0.4,4.5c0.2,1.4,0.6,2.4,1.1,3.3c0.5,0.9,1.1,1.6,2,2.1
			S290.5,76.1,291.6,76.1z"/>
		<path class="st0" d="M310.8,56l-5.9,3.6l-0.9-1.5l6.8-4.2h2.1v23.5h-2.1V56z"/>
		<path class="st0" d="M324.5,65.4c-0.5-0.1-1-0.4-1.5-0.6c-0.5-0.2-0.9-0.7-1.2-1.2c-0.4-0.5-0.6-1-0.9-1.7
			c-0.2-0.6-0.4-1.4-0.4-2.2s0.1-1.7,0.5-2.6c0.2-0.9,0.7-1.5,1.4-2.1s1.5-1,2.4-1.4c1-0.4,2.1-0.5,3.5-0.5c1.4,0,2.5,0.1,3.5,0.5
			c1,0.4,1.7,0.7,2.4,1.4s1.1,1.2,1.4,2.1c0.2,0.9,0.5,1.6,0.5,2.6c0,0.9-0.1,1.5-0.4,2.1c-0.2,0.6-0.5,1.1-0.9,1.6
			c-0.4,0.5-0.7,0.9-1.2,1.1s-1,0.5-1.5,0.6c0.4,0.1,0.9,0.2,1.5,0.6c0.5,0.2,1,0.6,1.5,1.1c0.5,0.5,0.9,1.1,1.2,1.7
			c0.4,0.7,0.5,1.5,0.5,2.5c0,1-0.1,2-0.5,2.7c-0.4,0.7-0.9,1.5-1.6,2.1c-0.7,0.6-1.6,1.1-2.6,1.4c-1.1,0.4-2.4,0.5-3.7,0.5
			s-2.6-0.1-3.7-0.5c-1.1-0.4-2-0.7-2.7-1.4c-0.7-0.6-1.2-1.4-1.6-2.1c-0.4-0.9-0.5-1.7-0.5-2.7c0-1,0.1-1.7,0.5-2.5
			c0.4-0.7,0.7-1.2,1.2-1.7c0.5-0.5,1-0.9,1.5-1.1C323.5,65.7,324,65.5,324.5,65.4z M321.9,71.2c0,1.5,0.5,2.7,1.5,3.7
			c1,1,2.6,1.4,4.8,1.4c2.2,0,3.8-0.5,4.8-1.4c1-1,1.5-2.1,1.5-3.7c0-0.7-0.1-1.4-0.4-2c-0.2-0.6-0.6-1.1-1.1-1.5
			c-0.5-0.4-1.1-0.7-2-1c-0.9-0.2-1.9-0.4-3-0.4c-1.2,0-2.2,0.1-3,0.4c-0.9,0.2-1.5,0.6-2,1c-0.5,0.4-0.9,1-1.1,1.5
			C322,69.8,321.9,70.4,321.9,71.2z M322.5,59.7c0,1.6,0.5,2.8,1.4,3.6c1,0.9,2.4,1.2,4.5,1.2c2,0,3.5-0.4,4.3-1.2
			c0.9-0.9,1.4-2,1.4-3.6c0-0.6-0.1-1.2-0.4-1.9c-0.2-0.6-0.6-1.1-1-1.5c-0.5-0.5-1.1-0.7-1.7-1.1c-0.7-0.2-1.6-0.4-2.6-0.4
			s-1.9,0.1-2.6,0.4c-0.7,0.2-1.4,0.6-1.9,1.1c-0.5,0.5-0.9,1-1,1.5C322.5,58.4,322.5,59.1,322.5,59.7z"/>
	</g>
	<g>
		<g>
			<path class="st0" d="M26.2,17.2c0,6.2-3.6,12.9-13.1,12.9C6.3,30.2,0,26.4,0,17.2C0,9.8,4.7,4,14.1,4.6
				C24.1,5.1,26.2,12.9,26.2,17.2z M8.4,12.5c-0.9,1.4-1.2,3-1.2,4.7c0,3.8,1.9,7.2,5.9,7.2c3.8,0,5.8-3.2,5.8-6.9
				c0-2.6-0.6-4.7-2-5.9c-1.5-1.4-3.2-1.4-4.2-1.4C10.6,10.4,9.4,11,8.4,12.5z"/>
			<path class="st0" d="M90.3,7.3c0.7-0.7,1.1-1.4,2.5-2c1.1-0.5,2.7-0.9,4.5-0.9c1.5,0,3.1,0.2,4.3,1c2.6,1.4,3.2,3.6,3.2,7.3v16.7
				h-7.2V15.7c0-2.2,0-3-0.4-3.7c-0.6-1.4-1.9-1.9-3.2-1.9c-3.8,0-3.8,3.1-3.8,6.1v13.2H83V5.1h7.3V7.3z"/>
			<path class="st0" d="M79.6,23.3c-0.6,1.4-2.8,6.9-12.1,6.9c-7.3,0-12.4-4.5-12.4-12.5c0-5.9,2.8-13.1,12.5-13.1
				c1.5,0,5.7-0.1,8.8,3.2c3.2,3.5,3.3,8.2,3.5,11H62.4c0,3.1,1.7,6.1,5.6,6.1c4,0,5.3-2.6,6.2-4.3L79.6,23.3z M72.4,14.2
				c-0.1-1-0.4-2.4-1.4-3.5c-0.9-0.9-2.2-1.4-3.5-1.4c-1.7,0-3,0.9-3.7,1.6c-1,1.1-1.2,2.2-1.5,3.2H72.4z"/>
			<path class="st0" d="M179.9,10.2h4.8V5.1H180V0h-7.2v5.2h-1.1l-3.3,5h4.5v11.6c0,2.4,0,4.1,1,5.6c1.5,2.2,4.2,2.4,6.7,2.4
				c1.4,0,2.2-0.1,3.8-0.4v-5.6l-2.6,0.1c-2,0-2-1.2-1.9-2.7V10.2z"/>
			<path class="st0" d="M108.3,0h7.2v5.2h7.4l-3.3,5.1h-4.2v10.9c0,1.5,0,2.7,1.9,2.7l2.6-0.1v5.6c-1.5,0.2-2.5,0.4-3.8,0.4
				c-2.5,0-5.2-0.1-6.7-2.4c-1-1.5-1-3.2-1-5.6V0z"/>
			<g>
				<path class="st0" d="M191.3,10.2h-0.9V5.9h-1.6V5.1h4.1v0.7h-1.6V10.2z M198.2,10.2h-0.9V7.1v-1l-0.2,0.9l-1,3.3h-0.7l-1-3.3
					l-0.2-0.9v1v3.1h-0.9V5.1h1.2l1.2,4l1.2-4h1.2V10.2z"/>
			</g>
			<path class="st0" d="M145.5,23.3l-1.4,2.1c-1.2,1.9-3.7,4.8-10.6,4.8c-7.3,0-12.1-4.5-12.1-12.5c0-5.9,2.8-13.1,12.5-13.1
				c1.5,0,5.7-0.1,8.8,3.2c3.2,3.5,3.3,8.2,3.5,11h-17.3c0,3.1,1.5,6.1,5.3,6.1c4,0,5.1-2.6,5.9-4.3L145.5,23.3z M138.8,14.2
				c-0.1-1-0.4-2.4-1.4-3.5c-0.9-0.9-2.2-1.4-3.5-1.4c-1.7,0-3,0.9-3.7,1.6c-1,1.1-1.2,2.2-1.5,3.2H138.8z"/>
			<polygon class="st0" points="170.1,29.6 161.1,16.7 168.6,5.1 160.3,5.1 156.9,10.6 153,5.1 144.9,5.1 152.9,16.7 144.6,29.6 
				152.8,29.6 157.1,22.8 161.8,29.6 			"/>
			<path class="st0" d="M36.2,7.3c0.7-1,2.8-2.7,6.4-2.7c5.9,0,10.3,4.6,10.3,12.8c0,5-1.9,12.9-10.5,12.9c-3.1,0-5.6-1.7-6.2-2.7
				v10.3H29V5.1h7.3v2.2H36.2z M41.1,10.2c-1.4,0-2.7,0.5-3.7,1.9c-1,1.2-1.5,3.2-1.5,5.3c0,2.8,0.9,4.6,1.7,5.6
				c0.9,1,2.1,1.5,3.2,1.5c3.5,0,5.1-3.7,5.1-7.3c0-3-0.9-6.2-3.8-6.9C41.7,10.2,41.4,10.2,41.1,10.2z"/>
		</g>
	</g>
</g>
</svg>
